# xmcd
#
# Track frame offsets:
# 150
# 15131
# 29661
# 47029
# 58631
# 71519
# 88880
# 104618
# 120406
# 132694
# 143051
# 160518
#
# Disc length: 2354 seconds
#
#
# Revision: 0
# Processed by: cddbd v1.5PL3 Copyright (c) Steve Scherf et al.
# Submitted via: FreeRIP 2.30 
#
DISCID=a109300c
DTITLE=Bonnie Jeanne Taylor - A man like you
DYEAR=2001
DGENRE=Country
TTITLE0=Make time
TTITLE1=Fall
TTITLE2=Sliver of the moon
TTITLE3=A beautiful mess
TTITLE4=A man like you
TTITLE5=Spendin' every minute in love
TTITLE6=Fly straight home
TTITLE7=Where only eagles fly
TTITLE8=All that matters of me
TTITLE9=Straighten up and fly right
TTITLE10=I love you
TTITLE11=The way it should be
EXTD=
EXTT0=
EXTT1=
EXTT2=
EXTT3=
EXTT4=
EXTT5=
EXTT6=
EXTT7=
EXTT8=
EXTT9=
EXTT10=
EXTT11=
PLAYORDER=
